<?xml version="1.0"?><svg width="299.42856" height="1182.9558" xmlns="http://www.w3.org/2000/svg">

 <metadata id="metadata7">image/svg+xml</metadata>
 <g>
  <title>Layer 1</title>
  <g id="layer1">
   <g id="g3341">
    <path fill="none" stroke="#000000" stroke-width="8" stroke-linecap="round" stroke-miterlimit="4" d="m12.15271,22.643221c6.034546,27.777563 283.725464,20.35018 280,0l0,1019.999968c-26.408691,178.969849 -251.694061,184.509277 -280,0l0,-1019.999968z" id="rect2383"/>
    <path fill="none" stroke="#000000" stroke-width="8" stroke-linecap="round" stroke-miterlimit="4" id="path2386" d="m298.877167,20.84729a145.714279,18.57143 0 1 1 -291.428568,0a145.714279,18.57143 0 1 1 291.428568,0z"/>
    <g id="g3291">
     <path fill="none" fill-rule="evenodd" stroke="#000000" stroke-width="4" stroke-miterlimit="4" id="path3165" d="m103.581421,58.061951l0,1029.999939"/>
     <g id="g3193">
      <path fill="none" fill-rule="evenodd" stroke="#000000" stroke-width="1px" d="m102.509979,60.204811l52.857178,0" id="path3167"/>
      <path fill="none" fill-rule="evenodd" stroke="#000000" stroke-width="1px" d="m102.509979,90.419067l32.857178,0" id="path3169"/>
      <path fill="none" fill-rule="evenodd" stroke="#000000" stroke-width="1px" d="m102.509979,120.633377l32.857178,0" id="path3173"/>
      <path fill="none" fill-rule="evenodd" stroke="#000000" stroke-width="1px" d="m102.509979,150.847687l32.857178,0" id="path3175"/>
      <path fill="none" fill-rule="evenodd" stroke="#000000" stroke-width="1px" d="m102.509979,181.061935l32.857178,0" id="path3177"/>
      <path fill="none" fill-rule="evenodd" stroke="#000000" stroke-width="1px" d="m102.509979,211.276245l32.857178,0" id="path3191"/>
     </g>
     <g id="g3201">
      <path fill="none" fill-rule="evenodd" stroke="#000000" stroke-width="1px" d="m101.963913,211.247803l52.857178,0" id="path3203"/>
      <path fill="none" fill-rule="evenodd" stroke="#000000" stroke-width="1px" d="m101.963913,241.462051l32.857178,0" id="path3205"/>
      <path fill="none" fill-rule="evenodd" stroke="#000000" stroke-width="1px" d="m101.963913,271.676361l32.857178,0" id="path3207"/>
      <path fill="none" fill-rule="evenodd" stroke="#000000" stroke-width="1px" d="m101.963913,301.890656l32.857178,0" id="path3209"/>
      <path fill="none" fill-rule="evenodd" stroke="#000000" stroke-width="1px" d="m101.963913,332.104919l32.857178,0" id="path3211"/>
      <path fill="none" fill-rule="evenodd" stroke="#000000" stroke-width="1px" d="m101.963913,362.319244l32.857178,0" id="path3213"/>
     </g>
     <g id="g3215">
      <path fill="none" fill-rule="evenodd" stroke="#000000" stroke-width="1px" d="m102.721535,362.264771l52.85717,0" id="path3217"/>
      <path fill="none" fill-rule="evenodd" stroke="#000000" stroke-width="1px" d="m102.721535,392.479034l32.85717,0" id="path3219"/>
      <path fill="none" fill-rule="evenodd" stroke="#000000" stroke-width="1px" d="m102.721535,422.693329l32.85717,0" id="path3221"/>
      <path fill="none" fill-rule="evenodd" stroke="#000000" stroke-width="1px" d="m102.721535,452.907654l32.85717,0" id="path3223"/>
      <path fill="none" fill-rule="evenodd" stroke="#000000" stroke-width="1px" d="m102.721535,483.121918l32.85717,0" id="path3225"/>
      <path fill="none" fill-rule="evenodd" stroke="#000000" stroke-width="1px" d="m102.721535,513.336243l32.85717,0" id="path3227"/>
     </g>
     <g id="g3229">
      <path fill="none" fill-rule="evenodd" stroke="#000000" stroke-width="1px" d="m103.119652,513.362854l52.85717,0" id="path3231"/>
      <path fill="none" fill-rule="evenodd" stroke="#000000" stroke-width="1px" d="m103.119652,543.577087l32.85717,0" id="path3233"/>
      <path fill="none" fill-rule="evenodd" stroke="#000000" stroke-width="1px" d="m103.119652,573.791382l32.85717,0" id="path3235"/>
      <path fill="none" fill-rule="evenodd" stroke="#000000" stroke-width="1px" d="m103.119652,604.005737l32.85717,0" id="path3237"/>
      <path fill="none" fill-rule="evenodd" stroke="#000000" stroke-width="1px" d="m103.119652,634.219971l32.85717,0" id="path3239"/>
      <path fill="none" fill-rule="evenodd" stroke="#000000" stroke-width="1px" d="m103.119652,664.434265l32.85717,0" id="path3241"/>
     </g>
     <g id="g3243">
      <path fill="none" fill-rule="evenodd" stroke="#000000" stroke-width="1px" d="m103.226608,664.426819l52.857178,0" id="path3245"/>
      <path fill="none" fill-rule="evenodd" stroke="#000000" stroke-width="1px" d="m103.226608,694.641052l32.857178,0" id="path3247"/>
      <path fill="none" fill-rule="evenodd" stroke="#000000" stroke-width="1px" d="m103.226608,724.855347l32.857178,0" id="path3249"/>
      <path fill="none" fill-rule="evenodd" stroke="#000000" stroke-width="1px" d="m103.226608,755.069702l32.857178,0" id="path3251"/>
      <path fill="none" fill-rule="evenodd" stroke="#000000" stroke-width="1px" d="m103.226608,785.283936l32.857178,0" id="path3253"/>
      <path fill="none" fill-rule="evenodd" stroke="#000000" stroke-width="1px" d="m103.226608,815.49823l32.857178,0" id="path3255"/>
     </g>
     <g id="g3257">
      <path fill="none" fill-rule="evenodd" stroke="#000000" stroke-width="1px" d="m103.224258,815.561829l52.857178,0" id="path3259"/>
      <path fill="none" fill-rule="evenodd" stroke="#000000" stroke-width="1px" d="m103.224258,845.776062l32.857178,0" id="path3261"/>
      <path fill="none" fill-rule="evenodd" stroke="#000000" stroke-width="1px" d="m103.224258,875.990356l32.857178,0" id="path3263"/>
      <path fill="none" fill-rule="evenodd" stroke="#000000" stroke-width="1px" d="m103.224258,906.204712l32.857178,0" id="path3265"/>
      <path fill="none" fill-rule="evenodd" stroke="#000000" stroke-width="1px" d="m103.224258,936.418945l32.857178,0" id="path3267"/>
      <path fill="none" fill-rule="evenodd" stroke="#000000" stroke-width="1px" d="m103.224258,966.63324l32.857178,0" id="path3269"/>
     </g>
     <path fill="none" fill-rule="evenodd" stroke="#000000" stroke-width="1px" id="path3273" d="m103.402832,966.633362l52.857147,0"/>
     <path fill="none" fill-rule="evenodd" stroke="#000000" stroke-width="1px" id="path3275" d="m103.402832,996.847656l32.857147,0"/>
     <path fill="none" fill-rule="evenodd" stroke="#000000" stroke-width="1px" id="path3277" d="m103.402832,1027.062012l32.857147,0"/>
     <path fill="none" fill-rule="evenodd" stroke="#000000" stroke-width="1px" id="path3279" d="m103.402832,1057.276245l32.857147,0"/>
     <path fill="none" fill-rule="evenodd" stroke="#000000" stroke-width="1px" id="path3281" d="m103.402832,1087.490479l32.857147,0"/>
    </g>
   </g>
  </g>
 </g>
</svg>